<svg xmlns="http://www.w3.org/2000/svg" style="display: none"> 

<symbol id="amazon" viewBox="0 0 158 31" fill="currentColor">
<path fill-rule="evenodd" clip-rule="evenodd" d="M11.7749 18.0031C12.0109 18.1306 12.3133 18.1179 12.5231 17.9291L12.5306 17.9359C13.1624 17.3704 14.3121 16.3664 14.9586 15.8214C15.2165 15.6098 15.1709 15.2653 14.9691 14.9756C14.9074 14.8899 14.8452 14.806 14.7835 14.7225C14.2658 14.0227 13.7741 13.358 13.7741 12.0251V7.06473C13.7741 6.89399 13.7751 6.7244 13.776 6.55611C13.787 4.65225 13.797 2.91534 12.3819 1.58543C11.1672 0.413511 9.15291 0 7.6124 0C4.59926 0 1.23665 1.13111 0.531582 4.8751C0.456514 5.27272 0.744933 5.48183 1.00426 5.54033L4.07307 5.87439C4.36041 5.85995 4.56837 5.57609 4.62333 5.28934C4.8866 3.99969 5.9609 3.37743 7.16845 3.37743C7.81964 3.37743 8.56062 3.61868 8.94566 4.20445C9.34358 4.79086 9.3373 5.57077 9.33165 6.27177C9.33099 6.35348 9.33034 6.43412 9.33034 6.51326V6.92677C9.04543 6.95888 8.74697 6.98932 8.43959 7.02067C6.76603 7.19135 4.8283 7.38898 3.37662 8.02971C1.39217 8.8914 0 10.6487 0 13.2334C0 16.5415 2.07317 18.1956 4.73934 18.1956C6.99066 18.1956 8.22192 17.6615 9.95962 15.8814C10.0476 16.0094 10.1266 16.1273 10.2009 16.2384C10.6125 16.8532 10.8839 17.2586 11.7749 18.0031ZM9.33047 10.3289C9.33041 10.2751 9.33035 10.2209 9.33035 10.1662V9.47718C7.04024 9.47718 4.62083 9.9705 4.62083 12.682C4.62083 14.0601 5.332 14.9908 6.54637 14.9908C7.43498 14.9908 8.23486 14.4397 8.73807 13.5437C9.33277 12.4893 9.33172 11.498 9.33047 10.3289ZM54.0328 17.9291C53.8231 18.1179 53.521 18.1306 53.2847 18.0031C52.3932 17.258 52.1219 16.8526 51.71 16.2369L51.7098 16.2367C51.6358 16.1261 51.5572 16.0087 51.4697 15.8814C49.7313 17.6615 48.5001 18.1956 46.2491 18.1956C43.5833 18.1956 41.5094 16.5415 41.5094 13.2334C41.5094 10.6487 42.9016 8.8914 44.8864 8.02971C46.3378 7.38897 48.2758 7.19134 49.9497 7.02065C50.2571 6.98931 50.5555 6.95887 50.8405 6.92677V6.51326C50.8405 6.43449 50.8411 6.35424 50.8418 6.27293C50.8473 5.57162 50.8536 4.79118 50.4554 4.20445C50.07 3.61868 49.3298 3.37743 48.6779 3.37743C47.4703 3.37743 46.3967 3.99969 46.1327 5.28934C46.0781 5.57609 45.8698 5.85995 45.5828 5.87439L42.5137 5.54033C42.2547 5.48183 41.9666 5.27272 42.0413 4.8751C42.7468 1.13111 46.109 0 49.1225 0C50.6627 0 52.6769 0.413511 53.8913 1.58543C55.3065 2.91513 55.2964 4.65169 55.2854 6.55518V6.55522C55.2845 6.7238 55.2835 6.89369 55.2835 7.06473V12.0251C55.2835 13.357 55.7751 14.0217 56.2922 14.721L56.2924 14.7212C56.3544 14.8051 56.4168 14.8895 56.4788 14.9756C56.681 15.2653 56.7267 15.6098 56.4684 15.8214C55.8215 16.3664 54.6725 17.3704 54.04 17.9359L54.0328 17.9291ZM50.8404 10.1662L50.8405 10.3271C50.8418 11.4969 50.8428 12.4888 50.2478 13.5437C49.7442 14.4397 48.9447 14.9908 48.0557 14.9908C46.8413 14.9908 46.1305 14.0601 46.1305 12.682C46.1305 9.9705 48.5496 9.47718 50.8404 9.47718V10.1662ZM137.25 17.3866C137.25 17.7066 137.512 17.9641 137.841 17.9742H139.226C139.543 17.9536 139.794 17.7005 139.794 17.3873L139.795 7.96831C139.795 6.52409 139.943 5.11418 140.711 3.97946C141.308 3.08563 142.317 2.31928 143.314 2.2633C144.275 2.31422 145.193 2.95562 145.703 3.94479C146.147 4.80468 146.206 5.9394 146.206 6.90221L146.212 17.3866C146.212 17.7066 146.475 17.9641 146.804 17.9742H148.187C148.477 17.9551 148.711 17.7434 148.751 17.4726V8.55265L148.751 8.38986C148.75 6.81777 148.749 5.58319 149.578 4.21999C150.234 3.12499 151.248 2.31856 152.354 2.2633C153.344 2.3135 154.264 2.99137 154.747 4.08239C155.173 5.04253 155.168 6.14211 155.162 7.20516V7.20649V7.20782V7.20914C155.162 7.32512 155.161 7.44065 155.161 7.55552V17.4668C155.201 17.7492 155.447 17.9648 155.746 17.9742H157.137C157.455 17.9536 157.706 17.7005 157.706 17.3873L157.706 7.55552L157.706 7.37638C157.707 5.79871 157.709 3.96077 156.997 2.56955C156.228 1.05671 154.75 0.0595911 153.214 0.0595911L153.087 0.0613969L152.974 0.0595911C150.8 0.0595911 149.151 1.61938 148.277 3.81623C147.715 1.59121 146.204 0.0595911 144.14 0.0595911L144.022 0.0613969L143.901 0.0595911C141.954 0.0595911 140.414 1.53884 139.588 3.42691V1.04407C139.562 0.741072 139.299 0.505967 138.979 0.505967L137.817 0.506328C137.514 0.52583 137.273 0.755518 137.25 1.04371V17.3866ZM18.0048 17.9699H21.171C21.5086 17.9699 21.7823 17.708 21.7819 17.3816L21.783 8.72022L21.7828 8.51474C21.7797 6.64538 21.7757 4.21565 23.9704 4.21565C25.9889 4.21565 25.9549 6.38147 25.9272 8.14299V8.14314V8.14328V8.14342V8.14357V8.14371V8.14385V8.14399V8.14413C25.9241 8.34252 25.9211 8.53577 25.9211 8.72022L25.9243 17.383C25.9243 17.6961 26.175 17.9493 26.4929 17.9699H29.6554C29.9927 17.9699 30.2664 17.708 30.2664 17.3816V8.72022L30.2663 8.61704L30.2661 8.50346C30.2639 7.58787 30.261 6.35438 30.5616 5.59125C30.8867 4.76567 31.6852 4.24996 32.4534 4.24996C33.3697 4.24996 34.0791 4.55946 34.3154 5.65987C34.435 6.18771 34.4192 7.41149 34.4088 8.22473V8.22489V8.22504V8.2252V8.22535V8.22551V8.22567V8.22582V8.22597C34.4063 8.41877 34.4041 8.58844 34.4041 8.72022L34.4048 17.383C34.4048 17.6961 34.6555 17.9493 34.9734 17.9699H38.1363C38.4732 17.9699 38.7469 17.708 38.7469 17.3816L38.7494 7.06978C38.7494 6.81691 38.7537 6.55902 38.7581 6.29871L38.7581 6.29828C38.7838 4.75341 38.811 3.12304 37.951 1.94621C37.0642 0.708205 35.616 0.158181 34.2859 0.158181C32.4236 0.158181 30.6798 1.12099 29.9115 3.18422C29.0247 1.12099 27.7831 0.158181 25.8029 0.158181C23.8522 0.158181 22.404 1.12099 21.6354 3.18422H21.5761V1.05057C21.5567 0.752626 21.3089 0.517881 21.0004 0.501991L18.0515 0.502713C17.7139 0.502713 17.4405 0.764183 17.4405 1.09102L17.4384 17.4318C17.4625 17.7221 17.7035 17.95 18.0048 17.9699ZM59.1374 3.3861V1.05129C59.1388 0.695926 59.4053 0.459014 59.7261 0.459737L70.1343 0.458653C70.4669 0.458653 70.7341 0.702065 70.7348 1.0484L70.7341 3.05095C70.7316 3.38682 70.4504 3.82525 69.9504 4.52082L64.5591 12.2605C66.5605 12.2136 68.6775 12.5144 70.496 13.5422C70.9058 13.7737 71.0157 14.1172 71.048 14.4538V16.9449C71.048 17.2884 70.6745 17.6856 70.2819 17.4791C67.078 15.7918 62.8268 15.6069 59.2846 17.4993C58.9226 17.6932 58.5436 17.3018 58.5436 16.9583V14.5899C58.5436 14.2111 58.5508 13.5628 58.9308 12.985L65.1773 3.97476L59.7386 3.97404C59.4064 3.97404 59.1395 3.73569 59.1374 3.3861ZM59.013 21.1694C60.934 20.9384 65.1852 20.4271 65.9446 21.4044C66.7048 22.3827 65.101 26.4114 64.3829 28.215L64.3814 28.2188C64.1641 28.7641 64.6303 28.9841 65.121 28.5713C68.3101 25.8891 69.134 20.2686 68.4807 19.4567C67.8327 18.6528 62.2576 17.9587 58.8551 20.3617C58.3318 20.7312 58.422 21.2408 59.0024 21.1707L59.013 21.1694ZM41.4878 31C48.9084 31 57.5265 28.654 63.4705 24.2433C64.4543 23.5135 63.6117 22.4185 62.6067 22.8475C55.9429 25.6894 48.7005 27.0642 42.1121 27.0642C32.3453 27.0642 22.8893 24.3697 15.2428 19.8955C14.574 19.504 14.0776 20.1945 14.634 20.6994C21.722 27.1347 31.0871 31 41.4878 31ZM79.724 3.49336C77.3886 3.49336 77.241 6.6913 77.241 8.68555L77.241 8.75491C77.2407 10.7772 77.24 14.9442 79.6946 14.9442C82.1481 14.9442 82.2659 11.5054 82.2659 9.40784C82.2659 8.0326 82.207 6.3818 81.7932 5.07518C81.438 3.94046 80.7286 3.49336 79.724 3.49336ZM79.6945 0.158181C84.3944 0.158181 86.9359 4.21565 86.9359 9.37353C86.9359 14.3591 84.1286 18.314 79.6945 18.314C75.0834 18.314 72.571 14.2562 72.571 9.20162C72.571 4.11236 75.1129 0.158181 79.6945 0.158181ZM89.8761 17.9699H93.0307C93.368 17.9699 93.6417 17.708 93.6474 17.3816V8.58262C93.6474 7.48221 93.7071 6.48509 94.1503 5.48796C94.5044 4.69706 95.2138 4.18134 95.9824 4.18134C97.9999 4.18134 97.9806 6.40438 97.9655 8.15263L97.9654 8.1549C97.9642 8.30134 97.9629 8.44445 97.9629 8.58262V17.4549C97.9974 17.7344 98.2338 17.9507 98.5268 17.9699H101.701C102.014 17.9699 102.272 17.7449 102.308 17.4549V7.17271C102.308 5.59125 102.308 3.39043 101.48 2.08381C100.594 0.673896 99.2039 0.158181 97.7855 0.158181C95.5981 0.158181 94.3572 1.22392 93.4704 3.45905H93.4107V0.959562C93.3525 0.706038 93.1245 0.516076 92.8483 0.501991L89.9109 0.502713C89.592 0.502713 89.3294 0.737458 89.3028 1.03613L89.3079 17.383C89.3079 17.6961 89.5589 17.9493 89.8761 17.9699ZM104.293 16.6734C104.293 15.851 104.991 15.1844 105.852 15.1844C106.713 15.1844 107.41 15.851 107.41 16.6734C107.41 17.4953 106.713 18.1616 105.852 18.1616C104.991 18.1616 104.293 17.4953 104.293 16.6734ZM128.63 16.0807C130.108 16.0323 131.274 15.1118 131.964 13.5729C132.584 12.1977 132.703 10.6159 132.703 9.10303C132.703 7.45223 132.525 5.73318 131.757 4.32327C131.069 3.08996 129.882 2.30916 128.625 2.26221C127.225 2.31386 125.978 3.26511 125.346 4.7357C124.785 6.00801 124.607 7.69312 124.607 9.10303C124.607 10.6845 124.814 12.5068 125.465 13.8824C126.096 15.1854 127.314 16.0341 128.63 16.0807ZM128.299 18.3184C123.806 18.3184 121.797 13.7105 121.797 9.10303C121.797 4.25429 124.161 0.0595911 128.683 0.0595911L128.8 0.0606746L128.922 0.0595911C133.327 0.0595911 135.514 4.52949 135.514 9.13698C135.514 14.02 133.09 18.3184 128.538 18.3184L128.422 18.3169L128.299 18.3184ZM117.774 12.2168C117.335 14.3237 116.276 15.9489 114.259 16.0125C111.224 15.9117 110.504 11.8528 110.504 9.06836C110.504 6.18389 111.367 2.42834 114.402 2.33083C116.308 2.39403 117.451 3.9856 117.788 5.98743C117.832 6.26912 118.024 6.52301 118.314 6.56454L119.712 6.58115C120.003 6.54721 120.252 6.31427 120.252 6.04521C119.772 2.4594 117.561 0.0595911 114.464 0.0595911L114.343 0.0606746L114.225 0.0595911C109.762 0.0595911 107.811 4.70139 107.811 9.24027C107.811 13.8138 109.732 18.3184 114.196 18.3184L114.311 18.3169L114.435 18.3184C117.501 18.3184 119.653 15.8835 120.269 12.2999C120.292 12.0048 120.003 11.7629 119.689 11.7463L118.355 11.752C118.061 11.752 117.86 11.9543 117.774 12.2168Z"/>
</symbol>

<symbol id="google" viewBox="0 0 95 31" fill="currentColor">
<path fill-rule="evenodd" clip-rule="evenodd" d="M23.5028 12.7794C23.5024 12.8018 23.5019 12.8296 23.5013 12.8472H23.504C23.504 12.7101 23.5036 12.7332 23.5028 12.7794ZM23.5012 12.8472C23.5006 12.8666 23.4999 12.8736 23.499 12.8472L23.4972 12.8472C23.4972 16.3365 22.3333 19.1255 20.3301 21.072C18.3281 23.0168 15.5315 24.0756 12.26 24.1102C12.1718 24.1111 12.1233 24.112 12.1 24.1127C12.0733 24.1136 12.0803 24.1143 12.1 24.1149C12.1184 24.1155 12.1478 24.116 12.1714 24.1164H12.1715C12.2197 24.1172 12.2437 24.1176 12.1 24.1176C8.75191 24.1176 5.73008 22.7671 3.54137 20.5836C1.35039 18.3979 0 15.3812 0 12.0548C0 8.72836 1.35016 5.71438 3.54046 3.53111C5.7294 1.34897 8.75168 0 12.1 0C13.6758 0 15.1832 0.299171 16.5676 0.843076C17.9993 1.40588 19.3015 2.23568 20.4126 3.27198L18.0487 5.76634C17.2614 5.03191 16.3299 4.44054 15.2979 4.03498C14.3098 3.64651 13.2311 3.43304 12.1 3.43304C9.70103 3.43304 7.54245 4.39263 5.9852 5.94495C4.42184 7.50356 3.45821 9.66343 3.45821 12.0548C3.45821 14.447 4.42206 16.6094 5.98634 18.1698C7.54381 19.7234 9.70194 20.6846 12.1 20.6846C12.3669 20.6846 12.2348 20.688 12.1578 20.69C12.104 20.6914 12.0771 20.6921 12.2328 20.6905C14.5889 20.6655 16.5567 19.9479 17.9121 18.6311C18.97 17.6034 19.6814 16.1838 19.942 14.4142H12.1952V10.9811H21.7741H23.4777L23.4963 12.6844C23.4972 12.7744 23.4981 12.8238 23.499 12.8472L23.5012 12.8472ZM32.6114 11.7235C33.8531 11.7235 34.976 12.238 35.7876 13.0696C36.6003 13.9025 37.1031 15.0592 37.1031 16.3422C37.1031 17.6253 36.6003 18.7821 35.7876 19.6149C34.976 20.4465 33.8531 20.9609 32.6114 20.9609C31.3696 20.9609 30.2467 20.4465 29.4351 19.6149C28.6224 18.7821 28.1196 17.6253 28.1196 16.3422C28.1196 15.0592 28.6224 13.9025 29.4351 13.0696C30.2467 12.238 31.3696 11.7235 32.6114 11.7235ZM38.1621 10.8998C36.7404 9.50134 34.7778 8.63622 32.6115 8.63622C30.4452 8.63622 28.4824 9.50134 27.0606 10.8998C25.64 12.2971 24.7613 14.2217 24.7613 16.3422C24.7613 18.4627 25.64 20.3873 27.0606 21.7846C28.4824 23.1833 30.4452 24.0482 32.6115 24.0482C34.7778 24.0482 36.7404 23.1833 38.1621 21.7846C39.583 20.3873 40.4616 18.4627 40.4616 16.3422C40.4616 14.2217 39.583 12.2971 38.1621 10.8998ZM52.6713 13.0696C51.8597 12.238 50.7368 11.7235 49.4951 11.7235C48.2533 11.7235 47.1304 12.238 46.3188 13.0696C45.5063 13.9025 45.0035 15.0592 45.0035 16.3422C45.0035 17.6253 45.5063 18.7821 46.3188 19.6149C47.1304 20.4465 48.2533 20.9609 49.4951 20.9609C50.7368 20.9609 51.8597 20.4465 52.6713 19.6149C53.484 18.7821 53.9868 17.6253 53.9868 16.3422C53.9868 15.0592 53.484 13.9025 52.6713 13.0696ZM49.4952 8.63622C51.6615 8.63622 53.6241 9.50134 55.0461 10.8998C56.4667 12.2971 57.3454 14.2217 57.3454 16.3422C57.3454 18.4627 56.4667 20.3873 55.0461 21.7846C53.6241 23.1833 51.6615 24.0482 49.4952 24.0482C47.3289 24.0482 45.3663 23.1833 43.9444 21.7846C42.5237 20.3873 41.6449 18.4627 41.6449 16.3422C41.6449 14.2217 42.5237 12.2971 43.9444 10.8998C45.3663 9.50134 47.3289 8.63622 49.4952 8.63622ZM66.2446 11.7235C67.4273 11.7235 68.497 12.238 69.27 13.0696C70.0443 13.9025 70.523 15.0592 70.523 16.3422C70.523 17.6253 70.0443 18.7821 69.27 19.6149C68.497 20.4465 67.4273 21.0457 66.2446 21.0457C63.7269 21.0457 61.9662 18.9351 61.9662 16.3422C61.9662 15.0592 62.4449 13.9025 63.2191 13.0696C63.9922 12.238 65.0616 11.7235 66.2446 11.7235ZM70.1981 10.4121C69.0462 9.30317 67.7645 8.63622 65.651 8.63622C62.1117 8.63622 58.5485 12.0591 58.5485 16.3422C58.5485 18.4627 59.3436 20.3873 60.629 21.7846C61.9155 23.1833 64.0197 24.0482 65.9795 24.0482C67.7024 24.0482 69.0285 23.3799 70.1981 22.2685V23.9555C70.1981 26.4551 68.1309 27.9721 66.483 27.9721C64.157 27.9721 62.9133 27.0289 62.0799 25.1983L59.1365 26.5154C59.838 28.0564 60.8605 29.1505 62.0591 29.8829C63.4063 30.7062 64.9477 31 66.483 31C68.1642 31 69.8623 30.2957 71.1264 29.1798C72.4387 28.0213 73.4078 25.8005 73.4078 23.7529V9.0708H70.1981V10.4121ZM75.4828 23.6067H78.7969V0.992074H75.4828V23.6067ZM91.8282 18.9188C90.0858 21.8015 85.4888 21.7675 84.1842 18.6818C86.1923 17.8789 88.1949 17.0665 90.1974 16.2541C91.6865 15.65 93.1754 15.0459 94.6665 14.4459C93.5098 11.4864 91.9272 9.78357 89.9775 9.08063C86.9756 7.99822 84.0655 9.0073 82.1788 10.992C79.8664 13.4249 79.1522 18.5569 82.4894 21.9016C83.8552 23.2703 85.6828 24.1152 87.9537 24.1127C90.5041 24.0988 92.8455 23.0038 94.4528 20.6653L91.8282 18.9188ZM90.715 13.2513L83.6568 16.0734C83.553 14.5892 84.3564 13.276 85.2738 12.5067C87.6592 10.891 89.4691 11.6609 90.715 13.2513Z"/>
</symbol>

<symbol id="philips" viewBox="0 0 104 20" fill="currentColor">
<path fill-rule="evenodd" clip-rule="evenodd" d="M35.2265 0.882052H29.6493V8.13022H23.8409V0.882052H18.2614V19.1192H23.8409V11.9447H29.6493V19.1192H35.2265V0.882052ZM54.6376 15.4558V0.882052H49.0578V19.1192H59.1462L59.9855 15.4558H54.6376ZM39.3537 19.1192H44.9319V0.882052H39.3537V19.1192ZM61.9735 19.1192H67.5507V0.882052H61.9735V19.1192ZM95.0596 5.5352C95.0596 4.54421 96.054 4.08507 97.6578 4.08507C99.4153 4.08507 101.327 4.46711 102.624 5.00335L102.168 1.03436C100.715 0.729727 99.4153 0.5 97.0472 0.5C92.5386 0.5 89.4823 2.27483 89.4823 5.9956C89.4823 12.4029 98.1959 11.1073 98.1959 14.0828C98.1959 15.2264 97.3525 15.8353 95.2886 15.8353C93.4579 15.8353 90.6272 15.2264 88.948 14.3874L89.5599 18.5861C91.2401 19.1954 93.5321 19.5 95.3671 19.5C100.027 19.5 103.849 17.9734 103.849 13.3939C103.849 7.29153 95.0596 8.4361 95.0596 5.5352ZM79.3214 14.7694C84.5145 14.7694 87.801 12.097 87.801 7.44385C87.801 2.33124 84.2868 0.5 78.5544 0.5C76.3393 0.5 73.6632 0.652316 71.7528 0.882043V19.1192H77.3338V14.7694H79.3214ZM82.2976 7.52001C82.2976 9.8853 81.1543 11.4877 78.2494 11.4877H77.3338V3.95375C77.6577 3.93495 77.963 3.93495 78.2494 3.93495C80.9994 3.93495 82.2976 5.23088 82.2976 7.52001ZM7.56489 14.7694C12.7605 14.7694 16.0457 12.097 16.0457 7.44385C16.0457 2.33124 12.5302 0.5 6.80067 0.5C4.58372 0.5 1.90913 0.652316 0 0.882043V19.1192H5.57692V14.7694H7.56489ZM10.5462 7.52001C10.5462 9.8853 9.39904 11.4877 6.49546 11.4877H5.57702V3.95375C5.90369 3.93495 6.209 3.93495 6.49546 3.93495C9.24419 3.93495 10.5462 5.23088 10.5462 7.52001Z"/>
</symbol>

<symbol id="facebook"  viewBox="0 0 142 29" fill="currentColor">
<path fill-rule="evenodd" clip-rule="evenodd" d="M13.2841 4.79932V0.503362H9.59827C9.59827 0.503362 7.06448 0.350041 5.14481 2.11431C3.22514 3.87886 3.68581 6.0267 3.68581 6.0267V9.93936H-6.10352e-05V14.5425H3.53234V27.6604H8.75367V14.602H12.7467L13.2841 9.93936H8.75367V6.56387C8.75367 4.49241 10.9038 4.79932 10.9038 4.79932H13.2841ZM22.2115 24.0933C24.079 24.0933 25.5929 22.4204 25.5929 20.6409V17.2656C25.5929 15.4861 24.079 13.8135 22.2115 13.8135C20.3438 13.8135 18.8299 15.4861 18.8299 17.2656V20.6409C18.8299 22.4204 20.3438 24.0933 22.2115 24.0933ZM25.874 12.3569V10.0161H30.9068V27.6604H25.8773L25.9119 25.3845C24.5769 27.1654 22.6983 28.274 20.6173 28.274C16.5674 28.274 13.2842 24.6685 13.2842 18.8956C13.2842 13.0847 16.5674 9.51724 20.6173 9.51724C22.6788 9.51724 24.5418 10.6054 25.874 12.3569ZM72.272 17.1506C72.272 15.3711 73.786 13.6982 75.6534 13.6982C77.5211 13.6982 79.0351 15.3711 79.0351 17.1506V20.5259C79.0351 22.3054 77.5211 23.978 75.6534 23.978C73.786 23.978 72.272 22.3054 72.272 20.5259V17.1506ZM71.991 27.7754V25.4346C73.3232 27.1861 75.1862 28.2743 77.2477 28.2743C81.2976 28.2743 84.5808 24.7068 84.5808 18.8956C84.5808 13.123 81.2976 9.51724 77.2477 9.51724C75.1666 9.51724 73.2881 10.6261 71.9531 12.4067L71.9877 0.754056L66.7574 1.34206V27.6949L71.991 27.7754ZM38.2398 19.0084C38.2398 24.2251 42.2712 23.9948 42.2712 23.9948C44.9971 24.0332 45.9571 23.0744 45.9571 23.0744L47.224 26.8718C45.0355 28.4827 38.4319 28.751 35.4755 26.0277C32.9175 23.6714 32.918 19.8525 32.9645 18.8657C32.918 17.8789 32.9175 14.0603 35.4755 11.7037C38.4319 8.98032 45.0355 9.24891 47.224 10.8599L45.9571 14.6573C45.9571 14.6573 44.9971 13.6982 42.2712 13.7368C42.2712 13.7368 38.2398 13.5065 38.2398 18.7232V19.0084ZM53.2516 17.1888C53.2516 17.1888 52.9828 13.2764 56.5152 13.2764C60.0473 13.2764 59.7785 17.1888 59.7785 17.1888H53.2516ZM64.5778 20.756C64.5778 20.756 66.6893 9.70903 56.5919 9.64922C46.4943 9.58914 47.9533 19.6436 47.9533 19.6436C48.1838 25.7424 50.9864 27.507 55.7857 28.0822C60.5847 28.6577 64.2322 26.8165 64.2322 26.8165L63.1188 23.2493C63.1188 23.2493 59.2411 24.4384 56.1696 24.1698C53.0982 23.9015 53.3284 20.756 53.3284 20.756H64.5778ZM94.9405 24C96.8569 24 98.4103 22.3271 98.4103 20.5476V17.1723C98.4103 15.3928 96.8569 13.7202 94.9405 13.7202C93.0243 13.7202 91.4707 15.3928 91.4707 17.1723V20.5476C91.4707 22.3271 93.0243 24 94.9405 24ZM86.2001 19.016C86.2001 13.7202 88.4122 9.75804 94.9854 9.75804C101.261 9.75804 103.771 13.9031 103.771 19.016C103.771 25.0172 99.8375 28.2742 94.9854 28.2742C89.0506 28.2742 86.2001 24.6345 86.2001 19.016ZM117.811 20.5476C117.811 22.3271 116.257 24 114.341 24C112.425 24 110.871 22.3271 110.871 20.5476V17.1723C110.871 15.3928 112.425 13.7202 114.341 13.7202C116.257 13.7202 117.811 15.3928 117.811 17.1723V20.5476ZM114.386 9.75804C107.812 9.75804 105.6 13.7202 105.6 19.016C105.6 24.6345 108.451 28.2742 114.386 28.2742C119.238 28.2742 123.171 25.0172 123.171 19.016C123.171 13.9031 120.661 9.75804 114.386 9.75804ZM135.849 18.854L141.593 27.7374H136.147L130.361 18.7002V27.7374H125.086V1.21459L130.361 0.662202V17.9227L135.722 9.97043H141.338L135.849 18.854Z" />
</symbol>

<symbol id="linkedin" viewBox="0 0 142 37" fill="currentColor">
<path fill-rule="evenodd" clip-rule="evenodd" d="M139.132 0.248779H108.514C107.051 0.248779 105.862 1.40589 105.862 2.83187V33.5111C105.862 34.9385 107.051 36.0971 108.514 36.0971H139.132C140.598 36.0971 141.792 34.9385 141.792 33.5111V2.83187C141.792 1.40589 140.598 0.248779 139.132 0.248779ZM113.855 5.18424C115.559 5.18424 116.943 6.56566 116.943 8.26622C116.943 9.96829 115.559 11.3497 113.855 11.3497C112.147 11.3497 110.764 9.96829 110.764 8.26622C110.764 6.56566 112.147 5.18424 113.855 5.18424ZM116.518 30.7963H111.189V13.6883H116.518V30.7963ZM119.861 13.6883H124.972V16.026H125.043C125.755 14.6809 127.493 13.2631 130.086 13.2631C135.482 13.2631 136.478 16.8067 136.478 21.4125V30.7964H131.153V22.4767C131.153 20.4929 131.116 17.9409 128.384 17.9409C125.611 17.9409 125.185 20.102 125.185 22.3333V30.7964H119.861V13.6883ZM20.916 5.17657C22.6218 5.17657 24.0063 6.55799 24.0063 8.25856C24.0063 9.96211 22.6218 11.3395 20.916 11.3395C19.2121 11.3395 17.8276 9.96211 17.8276 8.25856C17.8276 6.55799 19.2121 5.17657 20.916 5.17657ZM18.2522 30.7887H23.5797V13.6807H18.2522V30.7887ZM0 5.55066V30.7956H15.8042V25.6929H5.54277V5.55066H0ZM51.1732 5.5489H45.848V30.7955H51.1732V22.3385H51.2426L56.8946 30.7955H63.5889L56.7482 21.5941L63.7348 13.6731H57.206L51.1732 20.6369V5.5489ZM26.5259 13.6831H31.6396V16.0217H31.7109C32.4205 14.6752 34.1611 13.2584 36.7532 13.2584C42.152 13.2584 43.146 16.8015 43.146 21.4068V30.7886H37.8188V22.4705C37.8188 20.4856 37.7822 17.9354 35.0473 17.9354C32.2781 17.9354 31.8531 20.0973 31.8531 22.3286V30.7886H26.5259V13.6831ZM72.1763 31.2301C74.9481 31.2301 77.752 29.9889 79.4569 27.827L75.7285 25.0985C74.8403 26.3032 73.6693 27.1895 71.9286 27.1895C69.8684 27.1895 68.3389 25.8785 67.916 23.8585H80.2743V22.1931C80.2743 16.7017 77.1522 13.1587 72.1763 13.1587C66.8506 13.1587 62.5888 16.7017 62.5888 22.1931C62.5888 27.6851 66.8506 31.2301 72.1763 31.2301ZM71.6783 16.9856C73.598 16.9856 74.9828 18.474 74.9481 20.2458H67.916C68.0565 18.5801 69.336 16.9856 71.6783 16.9856ZM100.535 30.7862H95.633V28.5175H95.5636C94.7442 29.7573 92.6863 31.2111 90.2706 31.2111C85.1552 31.2111 81.7822 27.5275 81.7822 22.318C81.7822 17.5339 84.765 13.1402 89.6656 13.1402C91.8694 13.1402 93.9286 13.7422 95.1362 15.4076H95.2056V5.54877H100.535V30.7862ZM91.3689 17.8177C88.7074 17.8177 87.1096 19.5907 87.1096 22.1753C87.1096 24.7641 88.7074 26.5334 91.3689 26.5334C94.0341 26.5334 95.6329 24.7641 95.6329 22.1753C95.6329 19.5907 94.0341 17.8177 91.3689 17.8177Z" />
</symbol>

<symbol id="logitech" viewBox="0 0 105 31" fill="currentColor">
<path fill-rule="evenodd" clip-rule="evenodd" d="M52.4114 2.15343H48.6011V6.81313H46.5482V10.1755H48.6011V21.945H52.4114V10.1755H54.4954V6.81313H52.4114V2.15343ZM42.9771 0C41.5777 0 40.4764 1.09151 40.4764 2.50745C40.4764 3.89322 41.5777 4.98532 42.9771 4.98532C44.4351 4.98532 45.537 3.89322 45.537 2.50745C45.537 1.09151 44.4351 0 42.9771 0ZM103.543 6.46029C102.889 6.46029 102.382 5.95862 102.382 5.30916C102.382 4.68973 102.889 4.18806 103.543 4.18806C104.169 4.18806 104.674 4.68973 104.674 5.30916C104.674 5.95862 104.169 6.46029 103.543 6.46029ZM103.543 4.01201C102.8 4.01201 102.205 4.6017 102.205 5.30916C102.205 6.04664 102.8 6.63693 103.543 6.63693C104.258 6.63693 104.853 6.04664 104.853 5.30916C104.853 4.6017 104.258 4.01201 103.543 4.01201ZM58.9286 12.8018C59.4348 10.7961 60.9828 9.67505 62.9768 9.67505C64.9714 9.67505 66.4585 10.766 66.9354 12.8018H58.9286ZM63.0655 6.34149C58.4832 6.34149 55.0003 9.82284 55.0003 14.4535C55.0003 19.0251 58.1857 22.3878 63.1253 22.3878C65.8634 22.3878 68.3045 21.3853 70.0903 19.4967L67.5305 16.9904C66.2802 18.1706 64.9409 19.0251 63.2146 19.0251C61.1319 19.0251 59.5541 17.8449 59.0187 15.8695H70.8929V14.9552C70.8929 9.79266 67.6797 6.34149 63.0655 6.34149ZM96.7862 6.34149C94.9115 6.34149 93.3047 7.0488 92.1735 8.25911V0.413645H88.3633V21.945H92.1735V13.7159C92.1735 11.5336 93.5729 10.0285 95.8935 10.0285C98.0665 10.0285 99.2573 11.3557 99.2573 13.7159V21.945H103.067V13.0376C103.067 8.84954 100.417 6.34149 96.7862 6.34149ZM103.245 5.28016V4.80734H103.543C103.782 4.80734 103.871 4.8967 103.871 5.04434C103.871 5.19154 103.782 5.28016 103.543 5.28016H103.245ZM104.049 5.04434C104.049 4.7495 103.84 4.6307 103.543 4.6307H103.067V5.98747H103.245V5.4568H103.543L103.871 5.98747H104.078L103.722 5.42795C103.931 5.39718 104.049 5.28016 104.049 5.04434ZM80.3575 9.99948C81.9646 9.99948 83.2747 10.825 84.2866 11.9763L86.9352 9.3802C85.4475 7.52162 83.0957 6.34149 80.418 6.34149C75.8051 6.34149 72.1732 9.82284 72.1732 14.3642C72.1732 18.9069 75.8051 22.3878 80.418 22.3878C83.0957 22.3878 85.4475 21.2073 86.9352 19.3507L84.2866 16.7546C83.3044 17.8753 81.9646 18.7302 80.3284 18.7302C77.8872 18.7302 76.012 16.8428 76.012 14.3642C76.012 11.8863 77.8872 9.99948 80.3575 9.99948ZM41.1018 21.945H44.9121V6.81313H41.1018V21.945ZM13.542 18.7302C11.1009 18.7302 9.16585 16.8138 9.16585 14.3353C9.16585 11.8863 11.1009 9.99948 13.542 9.99948C16.0118 9.99948 17.9467 11.8863 17.9467 14.3642C17.9467 16.8428 16.0118 18.7302 13.542 18.7302ZM13.542 6.34149C8.92808 6.34149 5.29729 9.82284 5.29729 14.3642C5.29729 18.9069 8.92808 22.3878 13.542 22.3878C18.1548 22.3878 21.7855 18.9069 21.7855 14.3642C21.7855 9.82284 18.1548 6.34149 13.542 6.34149ZM0 21.945H3.81021V0.413645H0V21.945ZM31.3396 18.7302C28.8997 18.7302 26.9648 16.8138 26.9648 14.3353C26.9648 11.8863 28.8997 9.99948 31.3396 9.99948C33.8101 9.99948 35.745 11.8863 35.745 14.3642C35.745 16.8428 33.8101 18.7302 31.3396 18.7302ZM39.4353 9.82284V6.81313H34.0772C33.215 6.51947 32.2926 6.34149 31.3396 6.34149C26.7269 6.34149 23.0963 9.82284 23.0963 14.3642C23.0963 18.9069 26.7269 22.3878 31.3396 22.3878C35.9525 22.3878 39.5845 18.9069 39.5845 14.3642C39.5845 12.8306 39.167 11.3268 38.334 10.2057L39.4353 9.82284ZM31.3396 27.3136C28.8997 27.3136 26.9649 25.4263 26.9649 22.9781H23.0963C23.0963 27.5206 26.7269 31 31.3396 31C35.9525 31 39.5845 27.5206 39.5845 22.9781H35.7145C35.7145 25.4263 33.7795 27.3136 31.3396 27.3136Z" />
</symbol>

<symbol viewBox="0 0 72 72" id="round21">
<circle cx="36" cy="36" r="36" fill="#E7EBFC"/>
<path d="M47.6 25.2C47.4 25 47 25 46.7 25L41 26.7V46.8L47.3 45C47.7 44.9 48 44.5 48 44V26C48 25.7 47.9 25.4 47.6 25.2Z" fill="#F46953"/>
<path d="M39 26.7L33 25.2V45.2999L39 46.7999V26.7Z" fill="#46BA71"/>
<path d="M31 25.2L24.7 27C24.3 27.2 24 27.6 24 28V46C24 46.2999 24.1 46.5999 24.4 46.7999C24.6 46.9 24.8 47 25 47H25.3L31 45.2999V25.2Z" fill="#2E4FD7"/>
</symbol>

<symbol viewBox="0 0 72 72" id="round22">
<circle cx="36" cy="36" r="36" fill="#E7EBFC"/>
<path d="M45 48H36C35.7348 48 35.4804 47.8946 35.2929 47.7071C35.1054 47.5196 35 47.2652 35 47V45C35 44.7348 35.1054 44.4804 35.2929 44.2929C35.4804 44.1054 35.7348 44 36 44H45C45.2652 44 45.5196 44.1054 45.7071 44.2929C45.8946 44.4804 46 44.7348 46 45V47C46 47.2652 45.8946 47.5196 45.7071 47.7071C45.5196 47.8946 45.2652 48 45 48Z" fill="#F46953"/>
<path d="M45 24H27C26.7348 24 26.4804 24.1054 26.2929 24.2929C26.1054 24.4804 26 24.7348 26 25V27C26 27.2652 26.1054 27.5196 26.2929 27.7071C26.4804 27.8946 26.7348 28 27 28H45C45.2652 28 45.5196 27.8946 45.7071 27.7071C45.8946 27.5196 46 27.2652 46 27V25C46 24.7348 45.8946 24.4804 45.7071 24.2929C45.5196 24.1054 45.2652 24 45 24Z" fill="#46BA71"/>
<path d="M45 30H27C26.7348 30 26.4804 30.1054 26.2929 30.2929C26.1054 30.4804 26 30.7348 26 31V41C26 41.2652 26.1054 41.5196 26.2929 41.7071C26.4804 41.8946 26.7348 42 27 42H45C45.2652 42 45.5196 41.8946 45.7071 41.7071C45.8946 41.5196 46 41.2652 46 41V31C46 30.7348 45.8946 30.4804 45.7071 30.2929C45.5196 30.1054 45.2652 30 45 30Z" fill="#2E4FD7"/>
</symbol>

<symbol viewBox="0 0 72 72" id="round23" >
<circle cx="36" cy="36" r="36" fill="#E7EBFC"/>
<path d="M33 34H26C25.7348 34 25.4804 33.8946 25.2929 33.7071C25.1054 33.5196 25 33.2652 25 33V26C25 25.7348 25.1054 25.4804 25.2929 25.2929C25.4804 25.1054 25.7348 25 26 25H33C33.2652 25 33.5196 25.1054 33.7071 25.2929C33.8946 25.4804 34 25.7348 34 26V33C34 33.2652 33.8946 33.5196 33.7071 33.7071C33.5196 33.8946 33.2652 34 33 34Z" fill="#2E4FD7"/>
<path d="M33 47H26C25.7348 47 25.4804 46.8946 25.2929 46.7071C25.1054 46.5196 25 46.2652 25 46V39C25 38.7348 25.1054 38.4804 25.2929 38.2929C25.4804 38.1054 25.7348 38 26 38H33C33.2652 38 33.5196 38.1054 33.7071 38.2929C33.8946 38.4804 34 38.7348 34 39V46C34 46.2652 33.8946 46.5196 33.7071 46.7071C33.5196 46.8946 33.2652 47 33 47Z" fill="#2E4FD7"/>
<path d="M37 26H47V28H37V26Z" fill="#46BA71"/> 
<path d="M47 39H37V41H47V39Z" fill="#46BA71"/>
<path d="M47 44H37V46H47V44Z" fill="#F46953"/>
<path d="M47 31H37V33H47V31Z" fill="#F46953"/>
</symbol>

<symbol viewBox="0 0 72 72" id="round24" >
<circle cx="36" cy="36" r="36" fill="#E7EBFC"/>
<g clip-path="url(#clip0_227_110)">
<path d="M42 34H48L45 30L42 34ZM42 38H48L45 42L42 38Z" fill="#F46953"/>
<path d="M25 24H31V48H25C24.7348 48 24.4804 47.8946 24.2929 47.7071C24.1054 47.5196 24 47.2652 24 47V25C24 24.7348 24.1054 24.4804 24.2929 24.2929C24.4804 24.1054 24.7348 24 25 24Z" fill="#2E4FD7"/>
<path d="M33 24H39C39.2652 24 39.5196 24.1054 39.7071 24.2929C39.8946 24.4804 40 24.7348 40 25V47C40 47.2652 39.8946 47.5196 39.7071 47.7071C39.5196 47.8946 39.2652 48 39 48H33V24Z" fill="#46BA71"/>
</g>
<defs>
<clipPath id="clip0_227_110">
<rect width="24" height="24" fill="white" transform="translate(24 24)"/>
</clipPath>
</defs>
</symbol>

<symbol id='atlassian' viewBox="0 0 93 12" >
<path clip-rule="evenodd" d="M5.48179 0.199095C5.63339 0.123817 5.81531 0.18404 5.89111 0.334597L11.1365 10.7682C11.1517 10.8134 11.1668 10.8736 11.1668 10.9188C11.1668 11.0814 11.044 11.2196 10.8869 11.2456L10.8333 11.25H7.02812C6.92417 11.25 6.83135 11.1947 6.76876 11.1125L6.74008 11.0694L4.90571 7.42586C3.81502 5.21559 3.94235 2.62109 5.21803 0.527827L5.33019 0.349653C5.36051 0.28943 5.40599 0.244263 5.48179 0.199095ZM54.2131 1.9215L54.3782 1.91967C55.3324 1.89016 56.2738 2.07984 57.1547 2.47597L57.3569 2.57105V4.79527C56.3888 4.31865 55.3612 3.98502 54.3186 3.98502C53.4548 3.98502 52.9931 4.22333 52.9931 4.77939C52.9931 5.19246 53.2969 5.5024 54.4765 5.79434L54.6165 5.82795C56.9254 6.35461 57.7759 7.12292 57.817 8.72189L57.8183 8.83735L50.8782 4.77939L50.8784 4.80535L50.8335 4.77939C50.8335 3.04237 51.9831 1.97151 54.2131 1.9215ZM50.8784 4.80535L50.8793 4.88233C50.909 6.24801 51.5477 7.33376 53.9016 7.82975L54.047 7.86241C55.3665 8.16533 55.6441 8.41922 55.6441 8.91009C55.6441 9.40259 55.3463 9.73623 54.3335 9.73623C53.1122 9.72034 51.9058 9.37082 50.8335 8.71944V11.0231L50.9222 11.0691C51.6409 11.438 52.588 11.8334 54.3037 11.8334L54.473 11.8315C56.8662 11.7782 57.8335 10.5855 57.8335 8.84654L57.8183 8.83735L57.8186 8.84654L50.8784 4.80535ZM63.2815 1.92142L63.4555 1.91967C64.4849 1.89016 65.5004 2.07984 66.4507 2.47597L66.6688 2.57105V4.79527C65.6245 4.31865 64.5159 3.98502 63.3912 3.98502C62.4594 3.98502 61.9613 4.22333 61.9613 4.77939C61.9613 5.19302 62.29 5.50325 63.5668 5.79554L63.7126 5.82795C66.2671 6.36812 67.1668 7.16248 67.1668 8.84654C67.1668 10.6259 66.0904 11.8175 63.327 11.8334C61.4731 11.8334 60.4512 11.4368 59.6754 11.0673L59.5835 11.0231V8.71944C60.7403 9.37082 62.0417 9.72034 63.3591 9.73623C64.4516 9.73623 64.7729 9.40259 64.7729 8.91009C64.7729 8.41864 64.4727 8.16473 63.0449 7.86133L62.8932 7.82975C60.2904 7.32136 59.6317 6.19336 59.6317 4.77939C59.6317 3.04139 60.8732 1.9703 63.2815 1.92142ZM3.27612 5.53516C3.17319 5.40528 2.98204 5.37641 2.84971 5.47743C2.80559 5.5063 2.77619 5.54959 2.76148 5.59289L0.114791 10.8026L0.0951451 10.8564C0.0556121 11.0017 0.118058 11.157 0.261829 11.2212C0.305941 11.2356 0.350052 11.25 0.408868 11.25H4.09953L4.14973 11.2465C4.24927 11.2323 4.3411 11.1758 4.37891 11.0768C5.15821 9.46052 4.67298 7.00717 3.27612 5.53516ZM89.497 6.18997L87.2233 1.91669H84.0835V11.25H86.0788V4.13817L86.914 6.02027L89.7445 11.25H92.2502V1.91669H90.2549V7.94864L89.497 6.18997ZM71.2502 1.91669V11.25H68.9168V1.91669H71.2502ZM36.1422 9.22908V1.91669H33.9168V11.25H38.4616L39.1668 9.22908H36.1422ZM32.1668 1.91669V3.93762H29.6582V11.25H27.5252V3.93762H25.1668V1.91669H32.1668ZM25.1668 11.25L21.9278 1.91669H19.0725L15.8335 11.25H18.305L18.7655 9.67647L18.9792 9.73613C20.0509 10.0145 21.1698 9.99465 22.2348 9.67647L22.6953 11.25H25.1668ZM45.8445 1.91669L49.0835 11.25H46.612L46.1515 9.67647C45.0865 9.99465 43.9676 10.0145 42.8959 9.73613L42.6822 9.67647L42.2217 11.25H39.7502L42.9892 1.91669H45.8445ZM82.3335 11.25L79.0945 1.91669H76.2392L73.0002 11.25H75.4716L75.9322 9.67647L76.1459 9.73613C77.2176 10.0145 78.3365 9.99465 79.4015 9.67647L79.862 11.25H82.3335ZM19.3028 7.82523L20.5002 3.7525L21.6975 7.82523L21.498 7.88065C21.1654 7.96278 20.8328 7.99492 20.5002 7.99492C20.101 7.99492 19.7019 7.93322 19.3028 7.82523ZM44.4168 3.7525L43.2195 7.82523C43.6186 7.93322 44.0177 7.99492 44.4168 7.99492C44.7494 7.99492 45.082 7.96278 45.4146 7.88065L45.6142 7.82523L44.4168 3.7525ZM76.4695 7.82523L77.6668 3.7525L78.8642 7.82523L78.6646 7.88065C78.332 7.96278 77.9994 7.99492 77.6668 7.99492C77.2677 7.99492 76.8686 7.93322 76.4695 7.82523Z" fill="currentColor"/>
</symbol>

<symbol id="layers" viewBox="0 0 44 44">
<rect opacity="0.01" x="44" y="44" width="44" height="44" transform="rotate(180 44 44)" fill="#191919"/>
<path d="M5.93998 13.3649L21.56 21.8533C21.835 21.9999 22.165 21.9999 22.44 21.8533L38.06 13.3649C38.3514 13.221 38.528 12.9163 38.5079 12.5919C38.4879 12.2676 38.2752 11.9869 37.9683 11.8799L22.3483 5.49991C22.1251 5.40823 21.8748 5.40823 21.6516 5.49991L6.03164 11.8799C5.72476 11.9869 5.51204 12.2676 5.49202 12.5919C5.472 12.9163 5.64858 13.221 5.93998 13.3649Z" fill="#191919"/>
<path d="M37.9684 19.5433L34.6134 18.1133L22.4401 24.7316C22.1651 24.8783 21.8351 24.8783 21.5601 24.7316L9.38677 18.1133L6.03177 19.5433C5.74218 19.6953 5.56079 19.9954 5.56079 20.3224C5.56079 20.6495 5.74218 20.9496 6.03177 21.1016L21.6518 30.0849C21.9218 30.2501 22.2617 30.2501 22.5318 30.0849L38.1518 21.1016C38.4276 20.9181 38.5769 20.5952 38.5382 20.2662C38.4995 19.9372 38.2793 19.6578 37.9684 19.5433Z" fill="#191919"/>
<path d="M37.9684 27.6834L35.1084 26.4368L22.44 33.3301C22.165 33.4768 21.835 33.4768 21.56 33.3301L8.89169 26.4368L6.03169 27.6834C5.73384 27.8379 5.54688 28.1454 5.54688 28.4809C5.54688 28.8164 5.73384 29.124 6.03169 29.2784L21.6517 38.4451C21.9267 38.5918 22.2567 38.5918 22.5317 38.4451L38.1517 29.2784C38.4358 29.0923 38.5907 28.7618 38.5519 28.4244C38.5131 28.087 38.2873 27.8002 37.9684 27.6834Z" fill="#191919"/>
</symbol>

<symbol id="heart" viewBox="0 0 44 44">
<rect opacity="0.01" width="44" height="44" fill="#191919"/>
<path d="M22.0001 38.5C21.5128 38.5028 21.0444 38.3115 20.6984 37.9684L6.45342 23.705C2.7346 19.9473 2.7346 13.896 6.45342 10.1384C10.2029 6.39952 16.2707 6.39952 20.0201 10.1384L22.0001 12.1184L23.9801 10.1384C27.7295 6.39952 33.7973 6.39952 37.5468 10.1384C41.2656 13.896 41.2656 19.9473 37.5468 23.705L23.3018 37.9684C22.9558 38.3115 22.4874 38.5028 22.0001 38.5Z" fill="#191919"/>
</symbol>

<symbol id="star" viewBox="0 0 44 44">
<rect opacity="0.01" x="44" width="44" height="44" transform="rotate(90 44 0)" fill="#191919"/>
<path d="M32.1934 38.5001C31.9002 38.5012 31.611 38.4321 31.3501 38.2984L22.0001 33.4034L12.6501 38.2984C12.0307 38.6241 11.2799 38.5688 10.7149 38.1557C10.1499 37.7427 9.86936 37.0441 9.99177 36.3551L11.8251 26.0334L4.27177 18.7C3.79154 18.2208 3.61522 17.5156 3.81343 16.8667C4.03021 16.202 4.60621 15.7184 5.29843 15.62L15.7484 14.0984L20.3501 4.69338C20.6564 4.0609 21.2973 3.65918 22.0001 3.65918C22.7029 3.65918 23.3438 4.0609 23.6501 4.69338L28.3068 14.08L38.7568 15.6017C39.449 15.7001 40.025 16.1837 40.2418 16.8484C40.44 17.4972 40.2637 18.2025 39.7834 18.6817L32.2301 26.015L34.0634 36.3367C34.1971 37.0385 33.9109 37.754 33.3301 38.1701C32.9981 38.4027 32.5984 38.5187 32.1934 38.5001Z" fill="#191919"/>
</symbol>

<symbol id="light" viewBox="0 0 44 44">
<rect opacity="0.01" width="44" height="44" fill="#191919"/>
<path d="M20.3683 42.1667C20.1558 42.1664 19.9448 42.1292 19.745 42.0567C18.9517 41.7662 18.4596 40.9713 18.5533 40.1317L19.965 27.1334H9.16667C8.48795 27.1344 7.8642 26.7603 7.5454 26.1611C7.2266 25.562 7.26492 24.8357 7.645 24.2734L22.11 2.64002C22.5807 1.94346 23.4648 1.65631 24.255 1.94335C25.0131 2.22479 25.4972 2.96964 25.4467 3.77668L24.035 16.8667H34.8333C35.5121 16.8657 36.1358 17.2397 36.4546 17.8389C36.7734 18.4381 36.7351 19.1644 36.355 19.7267L21.89 41.36C21.5485 41.8652 20.9781 42.1676 20.3683 42.1667Z" fill="#191919"/>
</symbol>

<symbol id="shield" viewBox="0 0 44 44">
<rect opacity="0.01" width="44" height="44" fill="#191919"/>
<path d="M21.9999 40.0583C21.3592 40.0683 20.7271 39.9103 20.1666 39.5999L19.6166 39.2883C10.8949 34.3538 5.50211 25.109 5.4999 15.0883V14.8316C5.48807 13.5099 6.18852 12.2841 7.33324 11.6233L20.1666 4.39993C21.301 3.74494 22.6988 3.74494 23.8332 4.39993L36.6666 11.6233C37.8113 12.2841 38.5117 13.5099 38.4999 14.8316V15.0883C38.4902 25.1167 33.0824 34.3633 24.3466 39.2883L23.7966 39.5999C23.2468 39.9041 22.6282 40.0619 21.9999 40.0583Z" fill="#191919"/>
</symbol>

<symbol id="square" viewBox="0 0 44 44">
<rect opacity="0.01" width="44" height="44" fill="#191919"/>
<path d="M16.5 5.5H9.16667C7.14162 5.5 5.5 7.14162 5.5 9.16667V16.5C5.5 18.525 7.14162 20.1667 9.16667 20.1667H16.5C18.525 20.1667 20.1667 18.525 20.1667 16.5V9.16667C20.1667 7.14162 18.525 5.5 16.5 5.5Z" fill="#191919"/>
<path d="M34.8333 5.5H27.4999C25.4749 5.5 23.8333 7.14162 23.8333 9.16667V16.5C23.8333 18.525 25.4749 20.1667 27.4999 20.1667H34.8333C36.8583 20.1667 38.4999 18.525 38.4999 16.5V9.16667C38.4999 7.14162 36.8583 5.5 34.8333 5.5Z" fill="#191919"/>
<path d="M16.5 23.8333H9.16667C7.14162 23.8333 5.5 25.4749 5.5 27.4999V34.8333C5.5 36.8583 7.14162 38.4999 9.16667 38.4999H16.5C18.525 38.4999 20.1667 36.8583 20.1667 34.8333V27.4999C20.1667 25.4749 18.525 23.8333 16.5 23.8333Z" fill="#191919"/>
<path d="M34.8333 23.8333H27.4999C25.4749 23.8333 23.8333 25.4749 23.8333 27.4999V34.8333C23.8333 36.8583 25.4749 38.4999 27.4999 38.4999H34.8333C36.8583 38.4999 38.4999 36.8583 38.4999 34.8333V27.4999C38.4999 25.4749 36.8583 23.8333 34.8333 23.8333Z" fill="#191919"/>
</symbol>

<symbol id="play" viewBox="0 0 48 48">
<rect opacity="0.01" x="37" y="37" width="26" height="26" transform="rotate(-180 37 37)" fill="#1E1E1E"/>
<path d="M19.6667 28.5608V19.4391C19.6657 18.7041 20.0871 18.034 20.7501 17.7166C21.5364 17.3452 22.4656 17.4545 23.1442 17.9983L28.6692 22.5591C29.0871 22.9213 29.3271 23.447 29.3271 23.9999C29.3271 24.5529 29.0871 25.0786 28.6692 25.4408L23.1442 30.0016C22.4656 30.5454 21.5364 30.6547 20.7501 30.2833C20.0871 29.9659 19.6657 29.2958 19.6667 28.5608Z" fill="#blue"/>
<circle cx="24" cy="24" r="23" stroke="#191919" stroke-width="2" fill="none" stroke-linejoin="round"/>
</symbol>

<symbol id="pause" viewBox="0 0 64 64">
  <path d="M24 23h2v18h-2zM37 23h2v18h-2z"></path>
  <path d="M32 0C23.453 0 15.417 3.33 9.374 9.375 3.329 15.417 0 23.453 0 32s3.329 16.583 9.374 22.626C15.417 60.671 23.453 64 32 64s16.583-3.33 22.627-9.375C60.671 48.583 64 40.547 64 32s-3.329-16.583-9.374-22.626C48.583 3.329 40.547 0 32 0zm21.213 53.212C47.546 58.879 40.013 62 32 62c-8.013 0-15.546-3.121-21.212-8.789C5.121 47.546 2 40.013 2 32s3.121-15.546 8.788-21.212C16.454 5.121 23.987 2 32 2s15.546 3.122 21.213 8.789C58.88 16.454 62 23.987 62 32s-3.12 15.546-8.787 21.212z"></path>
</symbol>

<symbol id="arrow-icon" viewBox="0 0 20 10" fill="currentColor">
<path d="M16.17 6L13.59 8.59L15 10L20 5L15 0L13.59 1.41L16.17 4H0V6H16.17Z"/>
</symbol>

</svg>
